<mxfile host="65bd71144e">
    <diagram name="Страница — 1" id="h8AnzWCXBsPaWdk4dMgH">
        <mxGraphModel dx="1296" dy="919" grid="1" gridSize="10" guides="1" tooltips="1" connect="1" arrows="1" fold="1" page="1" pageScale="1" pageWidth="827" pageHeight="1169" math="1" shadow="0">
            <root>
                <mxCell id="0"/>
                <mxCell id="1" parent="0"/>
                <mxCell id="32" style="edgeStyle=orthogonalEdgeStyle;rounded=0;html=1;entryX=0.5;entryY=0;entryDx=0;entryDy=0;fontSize=14;endArrow=classic;endFill=1;" edge="1" parent="1" source="P7Fcce9K3j6FbLcGQpMX-3" target="P7Fcce9K3j6FbLcGQpMX-9">
                    <mxGeometry relative="1" as="geometry"/>
                </mxCell>
                <mxCell id="P7Fcce9K3j6FbLcGQpMX-3" value="&lt;font style=&quot;font-size: 14px;&quot;&gt;Начало&lt;/font&gt;" style="strokeWidth=1;html=1;shape=mxgraph.flowchart.terminator;whiteSpace=wrap;strokeColor=default;gradientColor=none;" parent="1" vertex="1">
                    <mxGeometry x="465" y="30" width="150" height="52.5" as="geometry"/>
                </mxCell>
                <mxCell id="5" style="edgeStyle=orthogonalEdgeStyle;rounded=0;html=1;exitX=0.5;exitY=1;exitDx=0;exitDy=0;entryX=0.5;entryY=0;entryDx=0;entryDy=0;" parent="1" source="P7Fcce9K3j6FbLcGQpMX-9" target="P7Fcce9K3j6FbLcGQpMX-28" edge="1">
                    <mxGeometry relative="1" as="geometry"/>
                </mxCell>
                <mxCell id="P7Fcce9K3j6FbLcGQpMX-9" value="&lt;font style=&quot;font-size: 14px;&quot;&gt;\begin{multline} \\&lt;br&gt;x_0 := a;\\&lt;br&gt;f_0 := f(x_0);\\&lt;br&gt;\Delta := \frac{b - a}{4};\\&lt;br&gt;\\ \end{multline}&lt;/font&gt;" style="rounded=0;whiteSpace=wrap;html=1;strokeColor=default;strokeWidth=1;fontSize=12;gradientColor=none;" parent="1" vertex="1">
                    <mxGeometry x="437.5" y="110" width="205" height="90" as="geometry"/>
                </mxCell>
                <mxCell id="6" style="edgeStyle=orthogonalEdgeStyle;rounded=0;html=1;exitX=0.5;exitY=1;exitDx=0;exitDy=0;entryX=0.5;entryY=0;entryDx=0;entryDy=0;" parent="1" source="P7Fcce9K3j6FbLcGQpMX-28" target="P7Fcce9K3j6FbLcGQpMX-31" edge="1">
                    <mxGeometry relative="1" as="geometry">
                        <mxPoint x="540" y="340.0000000000002" as="targetPoint"/>
                    </mxGeometry>
                </mxCell>
                <mxCell id="P7Fcce9K3j6FbLcGQpMX-28" value="&lt;font style=&quot;font-size: 14px;&quot;&gt;\begin{multline} \\&lt;br&gt;x_1 := x_0 + \Delta;\\&lt;br&gt;f_1 := f(x_1);\\&lt;br&gt;\\ \end{multline}&lt;/font&gt;" style="rounded=0;whiteSpace=wrap;html=1;strokeColor=default;strokeWidth=1;fontSize=12;gradientColor=none;" parent="1" vertex="1">
                    <mxGeometry x="437.5" y="250" width="205" height="80" as="geometry"/>
                </mxCell>
                <mxCell id="P7Fcce9K3j6FbLcGQpMX-38" style="edgeStyle=orthogonalEdgeStyle;rounded=0;orthogonalLoop=1;jettySize=auto;html=1;exitX=0.5;exitY=1;exitDx=0;exitDy=0;entryX=0.5;entryY=0;entryDx=0;entryDy=0;" parent="1" edge="1">
                    <mxGeometry relative="1" as="geometry">
                        <mxPoint x="539.9999999999998" y="450" as="sourcePoint"/>
                        <mxPoint x="540" y="450.0000000000002" as="targetPoint"/>
                    </mxGeometry>
                </mxCell>
                <mxCell id="12" style="edgeStyle=orthogonalEdgeStyle;html=1;exitX=0;exitY=0.5;exitDx=0;exitDy=0;entryX=0.5;entryY=0;entryDx=0;entryDy=0;rounded=0;" edge="1" parent="1" source="P7Fcce9K3j6FbLcGQpMX-31" target="11">
                    <mxGeometry relative="1" as="geometry"/>
                </mxCell>
                <mxCell id="21" style="edgeStyle=orthogonalEdgeStyle;rounded=0;html=1;exitX=1;exitY=0.5;exitDx=0;exitDy=0;endArrow=classic;endFill=1;" edge="1" parent="1" source="P7Fcce9K3j6FbLcGQpMX-31">
                    <mxGeometry relative="1" as="geometry">
                        <mxPoint x="540" y="520" as="targetPoint"/>
                        <Array as="points">
                            <mxPoint x="750" y="390"/>
                            <mxPoint x="750" y="520"/>
                            <mxPoint x="540" y="520"/>
                        </Array>
                    </mxGeometry>
                </mxCell>
                <mxCell id="P7Fcce9K3j6FbLcGQpMX-31" value="&lt;font style=&quot;font-size: 14px;&quot;&gt;$$f_0 &amp;gt; f_1 \ ?$$&lt;/font&gt;" style="rhombus;whiteSpace=wrap;html=1;" parent="1" vertex="1">
                    <mxGeometry x="435" y="350" width="210" height="80" as="geometry"/>
                </mxCell>
                <mxCell id="P7Fcce9K3j6FbLcGQpMX-35" value="&lt;font style=&quot;font-size: 14px;&quot;&gt;Конец&lt;/font&gt;" style="strokeWidth=1;html=1;shape=mxgraph.flowchart.terminator;whiteSpace=wrap;strokeColor=default;gradientColor=none;" parent="1" vertex="1">
                    <mxGeometry x="620" y="890" width="150" height="52.5" as="geometry"/>
                </mxCell>
                <mxCell id="P7Fcce9K3j6FbLcGQpMX-44" value="&lt;font style=&quot;font-size: 14px;&quot;&gt;\begin{multline} \\&lt;br&gt;x_0 := x_1;\\&lt;br&gt;f_0 := f_1;\\&lt;br&gt;\\ \end{multline}&lt;/font&gt;" style="rounded=0;whiteSpace=wrap;html=1;strokeColor=default;strokeWidth=1;fontSize=12;gradientColor=none;" parent="1" vertex="1">
                    <mxGeometry x="175" y="820" width="205" height="80" as="geometry"/>
                </mxCell>
                <mxCell id="14" style="edgeStyle=orthogonalEdgeStyle;rounded=0;html=1;exitX=0;exitY=0.5;exitDx=0;exitDy=0;" edge="1" parent="1" source="11">
                    <mxGeometry relative="1" as="geometry">
                        <mxPoint x="280" y="820" as="targetPoint"/>
                        <Array as="points">
                            <mxPoint x="140" y="490"/>
                            <mxPoint x="140" y="780"/>
                            <mxPoint x="280" y="780"/>
                            <mxPoint x="280" y="820"/>
                        </Array>
                    </mxGeometry>
                </mxCell>
                <mxCell id="20" style="edgeStyle=orthogonalEdgeStyle;rounded=0;html=1;exitX=1;exitY=0.5;exitDx=0;exitDy=0;entryX=0.5;entryY=0;entryDx=0;entryDy=0;endArrow=classic;endFill=1;" edge="1" parent="1" source="11" target="17">
                    <mxGeometry relative="1" as="geometry"/>
                </mxCell>
                <mxCell id="11" value="&lt;font style=&quot;font-size: 14px;&quot;&gt;$$x_1 \in (a, \ b) \ ?$$&lt;/font&gt;" style="rhombus;whiteSpace=wrap;html=1;" vertex="1" parent="1">
                    <mxGeometry x="240" y="450" width="210" height="80" as="geometry"/>
                </mxCell>
                <mxCell id="13" value="&lt;font style=&quot;font-size: 14px;&quot;&gt;Да&lt;/font&gt;" style="text;html=1;align=center;verticalAlign=middle;resizable=0;points=[];autosize=1;strokeColor=none;fillColor=none;" vertex="1" parent="1">
                    <mxGeometry x="380" y="360" width="40" height="30" as="geometry"/>
                </mxCell>
                <mxCell id="15" value="&lt;font style=&quot;font-size: 14px;&quot;&gt;Да&lt;/font&gt;" style="text;html=1;align=center;verticalAlign=middle;resizable=0;points=[];autosize=1;strokeColor=none;fillColor=none;" vertex="1" parent="1">
                    <mxGeometry x="190" y="460" width="40" height="30" as="geometry"/>
                </mxCell>
                <mxCell id="24" style="edgeStyle=orthogonalEdgeStyle;rounded=0;html=1;exitX=1;exitY=0.5;exitDx=0;exitDy=0;entryX=0.5;entryY=0;entryDx=0;entryDy=0;endArrow=classic;endFill=1;" edge="1" parent="1" source="17" target="23">
                    <mxGeometry relative="1" as="geometry"/>
                </mxCell>
                <mxCell id="26" style="edgeStyle=orthogonalEdgeStyle;rounded=0;html=1;exitX=0;exitY=0.5;exitDx=0;exitDy=0;entryX=0.5;entryY=0;entryDx=0;entryDy=0;endArrow=classic;endFill=1;" edge="1" parent="1" source="17" target="22">
                    <mxGeometry relative="1" as="geometry"/>
                </mxCell>
                <mxCell id="17" value="&lt;font style=&quot;font-size: 14px;&quot;&gt;$$|\Delta| &amp;lt; \varepsilon \ ?$$&lt;/font&gt;" style="rhombus;whiteSpace=wrap;html=1;" vertex="1" parent="1">
                    <mxGeometry x="435" y="565" width="210" height="80" as="geometry"/>
                </mxCell>
                <mxCell id="31" style="edgeStyle=orthogonalEdgeStyle;rounded=0;html=1;endArrow=classic;endFill=1;exitX=0.5;exitY=1;exitDx=0;exitDy=0;" edge="1" parent="1" source="P7Fcce9K3j6FbLcGQpMX-44">
                    <mxGeometry relative="1" as="geometry">
                        <mxPoint x="540" y="220" as="targetPoint"/>
                        <mxPoint x="290" y="920" as="sourcePoint"/>
                        <Array as="points">
                            <mxPoint x="278" y="940"/>
                            <mxPoint x="80" y="940"/>
                            <mxPoint x="80" y="220"/>
                        </Array>
                    </mxGeometry>
                </mxCell>
                <mxCell id="33" style="edgeStyle=orthogonalEdgeStyle;rounded=0;html=1;exitX=0.5;exitY=1;exitDx=0;exitDy=0;fontSize=14;endArrow=none;endFill=0;" edge="1" parent="1" source="22">
                    <mxGeometry relative="1" as="geometry">
                        <mxPoint x="280" y="780" as="targetPoint"/>
                        <Array as="points">
                            <mxPoint x="380" y="780"/>
                            <mxPoint x="280" y="780"/>
                        </Array>
                    </mxGeometry>
                </mxCell>
                <mxCell id="22" value="&lt;font style=&quot;font-size: 14px;&quot;&gt;$$\Delta := - \frac{\Delta}{4};$$&lt;/font&gt;" style="rounded=0;whiteSpace=wrap;html=1;strokeColor=default;strokeWidth=1;fontSize=12;gradientColor=none;" vertex="1" parent="1">
                    <mxGeometry x="277.5" y="660" width="205" height="80" as="geometry"/>
                </mxCell>
                <mxCell id="28" style="edgeStyle=orthogonalEdgeStyle;rounded=0;html=1;exitX=0.5;exitY=1;exitDx=0;exitDy=0;endArrow=classic;endFill=1;" edge="1" parent="1" source="23" target="27">
                    <mxGeometry relative="1" as="geometry"/>
                </mxCell>
                <mxCell id="23" value="&lt;font style=&quot;font-size: 14px;&quot;&gt;\begin{multline} \\&lt;br&gt;x^* := x_0;\\&lt;br&gt;f^* := f_0;\\&lt;br&gt;\\ \end{multline}&lt;/font&gt;" style="rounded=0;whiteSpace=wrap;html=1;strokeColor=default;strokeWidth=1;fontSize=12;gradientColor=none;" vertex="1" parent="1">
                    <mxGeometry x="592.5" y="660" width="205" height="80" as="geometry"/>
                </mxCell>
                <mxCell id="25" value="&lt;font style=&quot;font-size: 14px;&quot;&gt;Да&lt;/font&gt;" style="text;html=1;align=center;verticalAlign=middle;resizable=0;points=[];autosize=1;strokeColor=none;fillColor=none;" vertex="1" parent="1">
                    <mxGeometry x="645" y="575" width="40" height="30" as="geometry"/>
                </mxCell>
                <mxCell id="29" style="edgeStyle=orthogonalEdgeStyle;rounded=0;html=1;exitX=0.5;exitY=1;exitDx=0;exitDy=0;endArrow=classic;endFill=1;" edge="1" parent="1" source="27" target="P7Fcce9K3j6FbLcGQpMX-35">
                    <mxGeometry relative="1" as="geometry"/>
                </mxCell>
                <mxCell id="27" value="&lt;font style=&quot;font-size: 14px;&quot;&gt;$$x^*, \ f^*;$$&lt;/font&gt;" style="shape=parallelogram;perimeter=parallelogramPerimeter;whiteSpace=wrap;html=1;fixedSize=1;" vertex="1" parent="1">
                    <mxGeometry x="595" y="780" width="200" height="70" as="geometry"/>
                </mxCell>
            </root>
        </mxGraphModel>
    </diagram>
</mxfile>